<svg xmlns="http://www.w3.org/2000/svg" viewBox="0 0 513.168 281.46">
  <defs>
    <style>
      .cls-1, .cls-10, .cls-11, .cls-12, .cls-13, .cls-14, .cls-15, .cls-16, .cls-24, .cls-25, .cls-26, .cls-27, .cls-28, .cls-29, .cls-3, .cls-30, .cls-31, .cls-32, .cls-6, .cls-7, .cls-8, .cls-9 {
        fill: none;
        stroke-width: 3px;
      }

      .cls-1, .cls-10, .cls-11, .cls-12, .cls-13, .cls-14, .cls-15, .cls-16, .cls-24, .cls-25, .cls-26, .cls-27, .cls-28, .cls-29, .cls-3, .cls-30, .cls-31, .cls-32, .cls-6, .cls-7, .cls-9 {
        stroke: #424242;
      }

      .cls-1 {
        opacity: 0.495;
      }

      .cls-2, .cls-5 {
        fill: #424242;
        font-size: 10px;
      }

      .cls-2 {
        font-family: SourceSansPro-Regular, Source Sans Pro;
      }

      .cls-3 {
        opacity: 0.498;
      }

      .cls-4 {
        fill: #f2f2f2;
      }

      .cls-5 {
        font-family: SourceSansPro-SemiBold, Source Sans Pro;
        font-weight: 600;
      }

      .cls-6 {
        opacity: 0.498;
      }

      .cls-12, .cls-24, .cls-25, .cls-26, .cls-27, .cls-28, .cls-29, .cls-30, .cls-31, .cls-32, .cls-7 {
        stroke-dasharray: 5;
      }

      .cls-7 {
        opacity: 0.495;
      }

      .cls-8 {
        stroke: #fff;
        opacity: 0.253;
      }

      .cls-9 {
        opacity: 0.496;
      }

      .cls-10 {
        opacity: 0.504;
      }

      .cls-11 {
        opacity: 0.495;
      }

      .cls-12 {
        opacity: 0.499;
      }

      .cls-13 {
        opacity: 0.504;
      }

      .cls-14 {
        opacity: 0.495;
      }

      .cls-15 {
        opacity: 0.499;
      }

      .cls-16 {
        opacity: 0.496;
      }

      .cls-17 {
        fill: #26a69a;
      }

      .cls-18 {
        fill: #ffee58;
      }

      .cls-19 {
        fill: #ab47bc;
      }

      .cls-20 {
        fill: #ef5350;
      }

      .cls-21 {
        fill: #29b6f6;
      }

      .cls-22 {
        fill: #9ccc65;
      }

      .cls-23 {
        fill: #ffa726;
      }

      .cls-24 {
        opacity: 0.502;
      }

      .cls-25 {
        opacity: 0.495;
      }

      .cls-26 {
        opacity: 0.501;
      }

      .cls-27 {
        opacity: 0.499;
      }

      .cls-28 {
        opacity: 0.499;
      }

      .cls-29 {
        opacity: 0.5;
      }

      .cls-30 {
        opacity: 0.501;
      }

      .cls-31 {
        opacity: 0.498;
      }

      .cls-32 {
        opacity: 0.497;
      }

      .cls-33 {
        fill: #ec407a;
      }
    </style>
  </defs>
  <g id="Group_83" data-name="Group 83" transform="translate(6.64 1.44)">
    <line id="Line_1" data-name="Line 1" class="cls-1" x2="0.153" y2="183.507" transform="translate(35.049 64.901)"/>
    <text id="_100" data-name="100" class="cls-2" transform="translate(13.797 71.026)"><tspan x="0" y="0">100</tspan></text>
    <text id="_80" data-name="80" class="cls-2" transform="translate(14.479 112.707)"><tspan x="0" y="0">80</tspan></text>
    <text id="_60" data-name="60" class="cls-2" transform="translate(14.479 153.387)"><tspan x="0" y="0">60</tspan></text>
    <text id="_40" data-name="40" class="cls-2" transform="translate(14.479 194.068)"><tspan x="0" y="0">40</tspan></text>
    <text id="_20" data-name="20" class="cls-2" transform="translate(14.292 234.748)"><tspan x="0" y="0">20</tspan></text>
    <text id="Media_Online_Percentage_" data-name="Media Online Percentage (%)" class="cls-2" transform="translate(3.36 96.401) rotate(-90)"><tspan x="-119.73" y="0">Media Online Percentage (%)</tspan></text>
    <line id="Line_2" data-name="Line 2" class="cls-3" x2="303.559" transform="translate(35.578 248.698)"/>
    <text id="_20-2" data-name="20" class="cls-2" transform="translate(55.91 263.089)"><tspan x="0" y="0">20</tspan></text>
    <text id="_40-2" data-name="40" class="cls-2" transform="translate(123.717 262.982)"><tspan x="0" y="0">40</tspan></text>
    <text id="_60-2" data-name="60" class="cls-2" transform="translate(191.359 262.982)"><tspan x="0" y="0">60</tspan></text>
    <text id="_80-2" data-name="80" class="cls-2" transform="translate(259.001 262.982)"><tspan x="0" y="0">80</tspan></text>
    <text id="_100-2" data-name="100" class="cls-2" transform="translate(323.412 262.982)"><tspan x="0" y="0">100</tspan></text>
    <path id="Union_3" data-name="Union 3" class="cls-4" d="M61.183,19.776a12.246,12.246,0,0,0-3.7-1.253h6.129L62.4,21.155A3.937,3.937,0,0,0,61.183,19.776ZM6,18.523a6,6,0,0,1-6-6V6A6,6,0,0,1,6,0H76.036a6,6,0,0,1,6,6v6.522a6,6,0,0,1-6,6Z" transform="translate(195.078 45.401)"/>
    <text id="Religius" class="cls-5" transform="translate(236.078 58.401)"><tspan x="-16.955" y="0">Religius</tspan></text>
    <line id="Line_3" data-name="Line 3" class="cls-6" y1="65.191" x2="169.564" transform="translate(35.202 183.507)"/>
    <line id="Line_4" data-name="Line 4" class="cls-7" x2="303.559" transform="translate(201.47 183.567)"/>
    <line id="Line_5" data-name="Line 5" class="cls-8" y1="65.191" x2="169.564" transform="translate(335.312 183.507)"/>
    <line id="Line_6" data-name="Line 6" class="cls-9" x2="303.559" transform="translate(35.202 65.191)"/>
    <line id="Line_7" data-name="Line 7" class="cls-10" y1="65.191" x2="169.564" transform="translate(35.202)"/>
    <line id="Line_8" data-name="Line 8" class="cls-11" x2="303.559" transform="translate(201.47 0.06)"/>
    <line id="Line_9" data-name="Line 9" class="cls-8" y1="65.191" x2="169.564" transform="translate(335.312)"/>
    <path id="Union_1" data-name="Union 1" class="cls-4" d="M61.183,19.776a12.246,12.246,0,0,0-3.7-1.253h6.129L62.4,21.155A3.937,3.937,0,0,0,61.183,19.776ZM6,18.523a6,6,0,0,1-6-6V6A6,6,0,0,1,6,0H76.036a6,6,0,0,1,6,6v6.522a6,6,0,0,1-6,6Z" transform="translate(344.239 55.914)"/>
    <path id="Union_7" data-name="Union 7" class="cls-4" d="M67.041,19.776a14.327,14.327,0,0,0-4.049-1.253h6.716l-1.33,2.632A4.024,4.024,0,0,0,67.041,19.776ZM6,18.523a6,6,0,0,1-6-6V6A6,6,0,0,1,6,0H83.892a6,6,0,0,1,6,6v6.522a6,6,0,0,1-6,6Z" transform="translate(283.078 95.276)"/>
    <text id="Tegas_dan_Berani" data-name="Tegas dan Berani" class="cls-5" transform="translate(328.078 107.76)"><tspan x="-36.25" y="0">Tegas dan Berani</tspan></text>
    <text id="Bersih" class="cls-5" transform="translate(385.747 68.398)"><tspan x="-13.61" y="0">Bersih</tspan></text>
    <path id="Union_5" data-name="Union 5" class="cls-4" d="M69.7,31.64c-1.088-1.189-4.21-2-4.21-2h6.982l-1.382,4.21A6.308,6.308,0,0,0,69.7,31.64Zm-63.7-2a6,6,0,0,1-6-6V6A6,6,0,0,1,6,0H87.451a6,6,0,0,1,6,6V23.635a6,6,0,0,1-6,6Z" transform="translate(327.078 134.637)"/>
    <text id="Cerdas_dan_Berwawasan_Luas" data-name="Cerdas dan
Berwawasan Luas" class="cls-5" transform="translate(373.078 145.617)"><tspan x="-23.985" y="0">Cerdas dan</tspan><tspan x="-38.495" y="13">Berwawasan Luas</tspan></text>
    <path id="Union_6" data-name="Union 6" class="cls-4" d="M61.183,19.776a12.246,12.246,0,0,0-3.7-1.253h6.129L62.4,21.155A3.937,3.937,0,0,0,61.183,19.776ZM6,18.523a6,6,0,0,1-6-6V6A6,6,0,0,1,6,0H76.036a6,6,0,0,1,6,6v6.522a6,6,0,0,1-6,6Z" transform="translate(402.078 7.973)"/>
    <text id="Integritas" class="cls-5" transform="translate(443.078 20.457)"><tspan x="-20.63" y="0">Integritas</tspan></text>
    <line id="Line_10" data-name="Line 10" class="cls-12" x2="0.153" y2="183.507" transform="translate(204.766)"/>
    <line id="Line_11" data-name="Line 11" class="cls-13" x2="0.153" y2="183.507" transform="translate(335.159 65.131)"/>
    <line id="Line_12" data-name="Line 12" class="cls-14" y1="65.191" x2="169.564" transform="translate(335.312 183.507)"/>
    <line id="Line_13" data-name="Line 13" class="cls-15" y1="65.191" x2="169.564" transform="translate(335.312)"/>
    <line id="Line_14" data-name="Line 14" class="cls-16" x2="0.153" y2="183.507" transform="translate(504.875)"/>
    <circle id="Ellipse_10" data-name="Ellipse 10" class="cls-17" cx="5" cy="5" r="5" transform="translate(393.69 170.416)"/>
    <circle id="Ellipse_11" data-name="Ellipse 11" class="cls-18" cx="5" cy="5" r="5" transform="translate(404.273 78.991)"/>
    <circle id="Ellipse_12" data-name="Ellipse 12" class="cls-19" cx="5" cy="5" r="5" transform="translate(464.744 32.855)"/>
    <path id="Path_382" data-name="Path 382" class="cls-20" d="M5,0A5,5,0,1,1,0,5,5,5,0,0,1,5,0Z" transform="translate(323.78 33.48)"/>
    <circle id="Ellipse_15" data-name="Ellipse 15" class="cls-21" cx="5" cy="5" r="5" transform="translate(349.18 119.141)"/>
    <circle id="Ellipse_16" data-name="Ellipse 16" class="cls-22" cx="5" cy="5" r="5" transform="translate(257.693 68.835)"/>
    <circle id="Ellipse_17" data-name="Ellipse 17" class="cls-23" cx="5" cy="5" r="5" transform="translate(176.227 117.375)"/>
    <text id="_100-3" data-name="100" class="cls-2" transform="translate(176.745 176.496)"><tspan x="0" y="0">100</tspan></text>
    <text id="_60-3" data-name="60" class="cls-2" transform="translate(114.634 200.824)"><tspan x="0" y="0">60</tspan></text>
    <text id="_40-3" data-name="40" class="cls-2" transform="translate(84.675 212.235)"><tspan x="0" y="0">40</tspan></text>
    <text id="_20-3" data-name="20" class="cls-2" transform="translate(55.601 224.656)"><tspan x="0" y="0">20</tspan></text>
    <text id="Social_Media_" data-name="Social Media (%)" class="cls-2" transform="translate(187.078 277.021)"><tspan x="-34.475" y="0">Social Media (%)</tspan></text>
    <path id="Union_2" data-name="Union 2" class="cls-4" d="M61.183,19.776a12.246,12.246,0,0,0-3.7-1.253h6.129L62.4,21.155A3.937,3.937,0,0,0,61.183,19.776ZM6,18.523a6,6,0,0,1-6-6V6A6,6,0,0,1,6,0H76.036a6,6,0,0,1,6,6v6.522a6,6,0,0,1-6,6Z" transform="translate(261.078 9.006)"/>
    <text id="Nasionalis" class="cls-5" transform="translate(302.078 21.49)"><tspan x="-22.27" y="0">Nasionalis</tspan></text>
    <path id="Union_4" data-name="Union 4" class="cls-4" d="M61.183,29.369c-.956-1.1-3.7-1.86-3.7-1.86h6.129L62.4,31.417A5.951,5.951,0,0,0,61.183,29.369ZM6,27.509a6,6,0,0,1-6-6V6A6,6,0,0,1,6,0H76.036a6,6,0,0,1,6,6V21.509a6,6,0,0,1-6,6Z" transform="translate(117.41 83.555)"/>
    <text id="Bijak_dan_Berwibawa" data-name="Bijak dan
Berwibawa" class="cls-5" transform="translate(158.108 94.135)"><tspan x="-20" y="0">Bijak dan</tspan><tspan x="-24.1" y="13">Berwibawa</tspan></text>
    <path id="Union_8" data-name="Union 8" class="cls-4" d="M63.576,19.776a13.067,13.067,0,0,0-3.839-1.253h6.368l-1.262,2.632A3.955,3.955,0,0,0,63.576,19.776ZM6,18.523a6,6,0,0,1-6-6V6A6,6,0,0,1,6,0H79.246a6,6,0,0,1,6,6v6.522a6,6,0,0,1-6,6Z" transform="translate(191.078 125.554)"/>
    <text id="Jiwa_Negarawan" data-name="Jiwa Negarawan" class="cls-5" transform="translate(233.078 138.038)"><tspan x="-35.29" y="0">Jiwa Negarawan</tspan></text>
    <line id="Line_15" data-name="Line 15" class="cls-24" x2="132.956" y2="0.131" transform="translate(35.093 186.595)"/>
    <line id="Line_16" data-name="Line 16" class="cls-25" y2="61.911" transform="translate(167.33 186.726)"/>
    <line id="Line_17" data-name="Line 17" class="cls-26" x2="132.957" transform="translate(124.969 215.864)"/>
    <line id="Line_18" data-name="Line 18" class="cls-27" y1="32.802" x2="88.805" transform="translate(167.515 215.995)"/>
    <line id="Line_19" data-name="Line 19" class="cls-28" x2="132.956" y2="0.131" transform="translate(123.364 154.298)"/>
    <text id="_80-3" data-name="80" class="cls-2" transform="translate(147.267 188.403)"><tspan x="0" y="0">80</tspan></text>
    <line id="Line_20" data-name="Line 20" class="cls-29" y2="61.911" transform="translate(255.601 154.429)"/>
    <line id="Line_21" data-name="Line 21" class="cls-30" y1="32.198" x2="87.91" transform="translate(35.202 154.429)"/>
    <line id="Line_22" data-name="Line 22" class="cls-31" y1="32.198" x2="87.91" transform="translate(168.946 154.429)"/>
    <line id="Line_23" data-name="Line 23" class="cls-32" y2="61.911" transform="translate(125.067 154.429)"/>
    <circle id="Ellipse_14" data-name="Ellipse 14" class="cls-33" cx="5" cy="5" r="5" transform="translate(251.384 149.349)"/>
    <text id="Survey_" data-name="Survey (%)" class="cls-2" transform="translate(134.033 179.157) rotate(-23)"><tspan x="-45.11" y="0">Survey (%)</tspan></text>
  </g>
</svg>
