<?xml version="1.0" encoding="utf-8"?>
<!-- Generator: Adobe Illustrator 22.0.1, SVG Export Plug-In . SVG Version: 6.00 Build 0)  -->
<svg version="1.1" id="Layer_1" xmlns="http://www.w3.org/2000/svg" xmlns:xlink="http://www.w3.org/1999/xlink" x="0px" y="0px"
	 viewBox="0 0 513.2 281.5" style="enable-background:new 0 0 513.2 281.5;" xml:space="preserve">
<style type="text/css">
	.st0{opacity:0.495;fill:none;stroke:#424242;stroke-width:3;enable-background:new    ;}
	.st1{fill:#424242;}
	.st2{font-family:'FjallaOne-Regular';}
	.st3{font-size:10px;}
	.st4{opacity:0.498;fill:none;stroke:#424242;stroke-width:3;enable-background:new    ;}
	.st5{fill:#F2F2F2;}
	.st6{opacity:0.495;fill:none;stroke:#424242;stroke-width:3;stroke-dasharray:5;enable-background:new    ;}
	.st7{opacity:0.253;fill:none;stroke:#FFFFFF;stroke-width:3;enable-background:new    ;}
	.st8{opacity:0.496;fill:none;stroke:#424242;stroke-width:3;enable-background:new    ;}
	.st9{opacity:0.504;fill:none;stroke:#424242;stroke-width:3;enable-background:new    ;}
	.st10{opacity:0.499;fill:none;stroke:#424242;stroke-width:3;stroke-dasharray:5;enable-background:new    ;}
	.st11{opacity:0.499;fill:none;stroke:#424242;stroke-width:3;enable-background:new    ;}
	.st12{fill:#26A69A;}
	.st13{fill:#FFEE58;}
	.st14{fill:#AB47BC;}
	.st15{fill:#EF5350;}
	.st16{fill:#29B6F6;}
	.st17{fill:#9CCC65;}
	.st18{fill:#FFA726;}
	.st19{enable-background:new    ;}
	.st20{font-family:'SourceSansPro-Regular';}
	.st21{opacity:0.502;fill:none;stroke:#424242;stroke-width:3;stroke-dasharray:5;enable-background:new    ;}
	.st22{opacity:0.501;fill:none;stroke:#424242;stroke-width:3;stroke-dasharray:5;enable-background:new    ;}
	.st23{opacity:0.5;fill:none;stroke:#424242;stroke-width:3;stroke-dasharray:5;enable-background:new    ;}
	.st24{opacity:0.498;fill:none;stroke:#424242;stroke-width:3;stroke-dasharray:5;enable-background:new    ;}
	.st25{opacity:0.497;fill:none;stroke:#424242;stroke-width:3;stroke-dasharray:5;enable-background:new    ;}
	.st26{fill:#EC407A;}
</style>
<g id="Group_83" transform="translate(6.64 1.44)">
	<line id="Line_1" class="st0" x1="35" y1="64.9" x2="35.2" y2="248.4"/>
	<text transform="matrix(1 0 0 1 13.797 71.026)" class="st1 st2 st3">100</text>
	<text transform="matrix(1 0 0 1 14.479 112.707)" class="st1 st2 st3">80</text>
	<text transform="matrix(1 0 0 1 14.479 153.387)" class="st1 st2 st3">60</text>
	<text transform="matrix(1 0 0 1 14.479 194.068)" class="st1 st2 st3">40</text>
	<text transform="matrix(1 0 0 1 14.292 234.748)" class="st1 st2 st3">20</text>
	<text transform="matrix(6.123234e-17 -1 1 6.123234e-17 3.36 216.1313)" class="st1 st2 st3">Media Online Percentage (%)</text>
	<line id="Line_2" class="st4" x1="35.6" y1="248.7" x2="339.1" y2="248.7"/>
	<text transform="matrix(1 0 0 1 55.91 263.089)" class="st1 st2 st3">20</text>
	<text transform="matrix(1 0 0 1 123.717 262.982)" class="st1 st2 st3">40</text>
	<text transform="matrix(1 0 0 1 191.359 262.982)" class="st1 st2 st3">60</text>
	<text transform="matrix(1 0 0 1 259.001 262.982)" class="st1 st2 st3">80</text>
	<text transform="matrix(1 0 0 1 323.412 262.982)" class="st1 st2 st3">100</text>
	<path id="Union_3" class="st5" d="M256.3,65.2c-1.2-0.6-2.4-1-3.7-1.3h6.1l-1.2,2.6C257.2,66,256.8,65.5,256.3,65.2z M201.1,63.9
		c-3.3,0-6-2.7-6-6v-6.5c0-3.3,2.7-6,6-6h70c3.3,0,6,2.7,6,6v6.5c0,3.3-2.7,6-6,6L201.1,63.9z"/>
	<text transform="matrix(1 0 0 1 219.123 58.401)" class="st1 st2 st3">Religius</text>
	<line id="Line_3" class="st4" x1="35.2" y1="248.7" x2="204.8" y2="183.5"/>
	<line id="Line_4" class="st6" x1="201.5" y1="183.6" x2="505" y2="183.6"/>
	<line id="Line_5" class="st7" x1="335.3" y1="248.7" x2="504.9" y2="183.5"/>
	<line id="Line_6" class="st8" x1="35.2" y1="65.2" x2="338.8" y2="65.2"/>
	<line id="Line_7" class="st9" x1="35.2" y1="65.2" x2="204.8" y2="0"/>
	<line id="Line_8" class="st0" x1="201.5" y1="0.1" x2="505" y2="0.1"/>
	<line id="Line_9" class="st7" x1="335.3" y1="65.2" x2="504.9" y2="0"/>
	<path id="Union_1" class="st5" d="M405.4,75.7c-1.2-0.6-2.4-1-3.7-1.3h6.1l-1.2,2.6C406.3,76.5,405.9,76,405.4,75.7z M350.2,74.4
		c-3.3,0-6-2.7-6-6v-6.5c0-3.3,2.7-6,6-6h70c3.3,0,6,2.7,6,6v6.5c0,3.3-2.7,6-6,6L350.2,74.4z"/>
	<path id="Union_7" class="st5" d="M350.1,115.1c-1.3-0.6-2.6-1-4-1.3h6.7l-1.3,2.6C351.1,115.9,350.7,115.4,350.1,115.1z
		 M289.1,113.8c-3.3,0-6-2.7-6-6v-6.5c0-3.3,2.7-6,6-6H367c3.3,0,6,2.7,6,6v6.5c0,3.3-2.7,6-6,6L289.1,113.8z"/>
	<text transform="matrix(1 0 0 1 291.828 107.76)" class="st1 st2 st3">Tegas dan Berani</text>
	<text transform="matrix(1 0 0 1 372.137 68.398)" class="st1 st2 st3">Bersih</text>
	<path id="Union_5" class="st5" d="M396.8,166.3c-1.1-1.2-4.2-2-4.2-2h7l-1.4,4.2C397.9,167.7,397.4,166.9,396.8,166.3z
		 M333.1,164.3c-3.3,0-6-2.7-6-6v-17.6c0-3.3,2.7-6,6-6c0,0,0,0,0,0h81.5c3.3,0,6,2.7,6,6v17.6c0,3.3-2.7,6-6,6L333.1,164.3z"/>
	<text transform="matrix(1 0 0 1 349.093 145.617)" class="st1 st2 st3">Cerdas dan</text>
	<text transform="matrix(1 0 0 1 334.583 158.617)" class="st1 st2 st3">Berwawasan Luas</text>
	<path id="Union_6" class="st5" d="M463.3,27.7c-1.2-0.6-2.4-1-3.7-1.3h6.1l-1.2,2.6C464.2,28.6,463.8,28.1,463.3,27.7z M408.1,26.5
		c-3.3,0-6-2.7-6-6V14c0-3.3,2.7-6,6-6h70c3.3,0,6,2.7,6,6v6.5c0,3.3-2.7,6-6,6L408.1,26.5z"/>
	<text transform="matrix(1 0 0 1 422.448 20.457)" class="st1 st2 st3">Integritas</text>
	<line id="Line_10" class="st10" x1="204.8" y1="0" x2="204.9" y2="183.5"/>
	<line id="Line_11" class="st9" x1="335.2" y1="65.1" x2="335.3" y2="248.6"/>
	<line id="Line_12" class="st0" x1="335.3" y1="248.7" x2="504.9" y2="183.5"/>
	<line id="Line_13" class="st11" x1="335.3" y1="65.2" x2="504.9" y2="0"/>
	<line id="Line_14" class="st8" x1="504.9" y1="0" x2="505" y2="183.5"/>
	<circle id="Ellipse_10" class="st12" cx="398.7" cy="175.4" r="5"/>
	<circle id="Ellipse_11" class="st13" cx="409.3" cy="84" r="5"/>
	<circle id="Ellipse_12" class="st14" cx="469.7" cy="37.9" r="5"/>
	<path id="Path_382" class="st15" d="M328.8,33.5c2.8,0,5,2.2,5,5s-2.2,5-5,5s-5-2.2-5-5S326,33.5,328.8,33.5z"/>
	<circle id="Ellipse_15" class="st16" cx="354.2" cy="124.1" r="5"/>
	<circle id="Ellipse_16" class="st17" cx="262.7" cy="73.8" r="5"/>
	<circle id="Ellipse_17" class="st18" cx="181.2" cy="122.4" r="5"/>
	<text transform="matrix(1 0 0 1 176.745 176.496)" class="st1 st2 st3">100</text>
	<text transform="matrix(1 0 0 1 114.634 200.824)" class="st1 st2 st3">60</text>
	<text transform="matrix(1 0 0 1 84.675 212.235)" class="st1 st2 st3">40</text>
	<text transform="matrix(1 0 0 1 55.601 224.656)" class="st1 st2 st3">20</text>
	<text transform="matrix(1 0 0 1 152.603 277.021)" class="st19"><tspan x="0" y="0" class="st1 st2 st3">Social Media</tspan><tspan x="48.7" y="0" class="st1 st20 st3"> </tspan><tspan x="50.7" y="0" class="st1 st2 st3">(%)</tspan></text>
	<path id="Union_2" class="st5" d="M322.3,28.8c-1.2-0.6-2.4-1-3.7-1.3h6.1l-1.2,2.6C323.2,29.6,322.8,29.1,322.3,28.8z M267.1,27.5
		c-3.3,0-6-2.7-6-6V15c0-3.3,2.7-6,6-6h70c3.3,0,6,2.7,6,6v6.5c0,3.3-2.7,6-6,6L267.1,27.5z"/>
	<text transform="matrix(1 0 0 1 279.808 21.49)" class="st1 st2 st3">Nasionalis</text>
	<path id="Union_4" class="st5" d="M178.6,112.9c-1-1.1-3.7-1.9-3.7-1.9h6.1l-1.2,3.9C179.5,114.2,179.1,113.5,178.6,112.9z
		 M123.4,111.1c-3.3,0-6-2.7-6-6V89.6c0-3.3,2.7-6,6-6h70c3.3,0,6,2.7,6,6v15.5c0,3.3-2.7,6-6,6H123.4z"/>
	<text transform="matrix(1 0 0 1 138.108 94.135)" class="st1 st2 st3">Bijak dan</text>
	<text transform="matrix(1 0 0 1 134.008 107.135)" class="st1 st2 st3">Berwibawa</text>
	<path id="Union_8" class="st5" d="M254.7,145.3c-1.2-0.6-2.5-1-3.8-1.3h6.4l-1.3,2.6C255.6,146.2,255.2,145.7,254.7,145.3z
		 M197.1,144.1c-3.3,0-6-2.7-6-6v-6.5c0-3.3,2.7-6,6-6h73.2c3.3,0,6,2.7,6,6v6.5c0,3.3-2.7,6-6,6L197.1,144.1z"/>
	<text transform="matrix(1 0 0 1 197.788 138.038)" class="st1 st2 st3">Jiwa Negarawan</text>
	<line id="Line_15" class="st21" x1="35.1" y1="186.6" x2="168" y2="186.7"/>
	<line id="Line_16" class="st6" x1="167.3" y1="186.7" x2="167.3" y2="248.6"/>
	<line id="Line_17" class="st22" x1="125" y1="215.9" x2="257.9" y2="215.9"/>
	<line id="Line_18" class="st10" x1="167.5" y1="248.8" x2="256.3" y2="216"/>
	<line id="Line_19" class="st10" x1="123.4" y1="154.3" x2="256.3" y2="154.4"/>
	<text transform="matrix(1 0 0 1 147.267 188.403)" class="st1 st2 st3">80</text>
	<line id="Line_20" class="st23" x1="255.6" y1="154.4" x2="255.6" y2="216.3"/>
	<line id="Line_21" class="st22" x1="35.2" y1="186.6" x2="123.1" y2="154.4"/>
	<line id="Line_22" class="st24" x1="168.9" y1="186.6" x2="256.9" y2="154.4"/>
	<line id="Line_23" class="st25" x1="125.1" y1="154.4" x2="125.1" y2="216.3"/>
	<circle id="Ellipse_14" class="st26" cx="256.4" cy="154.3" r="5"/>
	<text transform="matrix(0.9205 -0.3907 0.3907 0.9205 92.5089 196.7829)" class="st1 st2 st3">Survey (%)</text>
</g>
</svg>
